<?xml version="1.0" encoding="utf-8"?>
<svg version="1.1" viewBox="0 0 800 800" xmlns="http://www.w3.org/2000/svg">
  <defs>
    <symbol id="n" overflow="visible">
      <path d="m41.141-2.4531c-2.125 1.0938-4.3398 1.9219-6.6406 2.4844-2.293 0.5625-4.6875 0.84375-7.1875 0.84375-7.4609 0-13.367-2.082-17.719-6.25-4.3555-4.1758-6.5312-9.832-6.5312-16.969 0-7.1562 2.1758-12.816 6.5312-16.984 4.3516-4.1641 10.258-6.25 17.719-6.25 2.5 0 4.8945 0.28125 7.1875 0.84375 2.3008 0.5625 4.5156 1.3906 6.6406 2.4844v9.2656c-2.1484-1.457-4.2617-2.5234-6.3438-3.2031-2.0742-0.67578-4.2578-1.0156-6.5469-1.0156-4.125 0-7.3711 1.3203-9.7344 3.9531-2.3555 2.6367-3.5312 6.2734-3.5312 10.906 0 4.625 1.1758 8.2578 3.5312 10.891 2.3633 2.6367 5.6094 3.9531 9.7344 3.9531 2.2891 0 4.4727-0.33594 6.5469-1.0156 2.082-0.67578 4.1953-1.7422 6.3438-3.2031z"/>
    </symbol>
    <symbol id="j" overflow="visible">
      <path d="m30.109-24.438c-0.94922-0.4375-1.8867-0.75781-2.8125-0.96875-0.92969-0.20703-1.8594-0.3125-2.7969-0.3125-2.7617 0-4.8867 0.88672-6.375 2.6562-1.4922 1.7617-2.2344 4.293-2.2344 7.5938v15.469h-10.734v-33.578h10.734v5.5156c1.375-2.1953 2.957-3.8008 4.75-4.8125 1.7891-1.0078 3.9375-1.5156 6.4375-1.5156 0.35156 0 0.73828 0.015625 1.1562 0.046875 0.42578 0.03125 1.0391 0.09375 1.8438 0.1875z"/>
    </symbol>
    <symbol id="b" overflow="visible">
      <path d="m38.672-16.875v3.0469h-25.094c0.25781 2.5234 1.1719 4.4141 2.7344 5.6719 1.5625 1.2617 3.7383 1.8906 6.5312 1.8906 2.2578 0 4.5703-0.33203 6.9375-1 2.375-0.67578 4.8125-1.6914 7.3125-3.0469v8.2812c-2.543 0.96094-5.0859 1.6836-7.625 2.1719-2.5312 0.48828-5.0703 0.73438-7.6094 0.73438-6.0742 0-10.797-1.5391-14.172-4.625-3.3672-3.0938-5.0469-7.4297-5.0469-13.016 0-5.4688 1.6484-9.7695 4.9531-12.906 3.3125-3.1445 7.8672-4.7188 13.672-4.7188 5.2695 0 9.4883 1.5898 12.656 4.7656 3.1641 3.1797 4.75 7.4297 4.75 12.75zm-11.031-3.5781c0-2.0312-0.59375-3.6719-1.7812-4.9219s-2.7422-1.875-4.6562-1.875c-2.0859 0-3.7773 0.58594-5.0781 1.75-1.293 1.168-2.1016 2.8516-2.4219 5.0469z"/>
    </symbol>
    <symbol id="i" overflow="visible">
      <path d="m20.203-15.109c-2.2422 0-3.9219 0.38281-5.0469 1.1406-1.125 0.76172-1.6875 1.8828-1.6875 3.3594 0 1.3555 0.45312 2.418 1.3594 3.1875 0.90625 0.77344 2.1719 1.1562 3.7969 1.1562 2.0078 0 3.7031-0.72266 5.0781-2.1719 1.3828-1.4453 2.0781-3.2578 2.0781-5.4375v-1.2344zm16.406-4.0469v19.156h-10.828v-4.9844c-1.4375 2.043-3.0586 3.5312-4.8594 4.4688-1.793 0.92578-3.9805 1.3906-6.5625 1.3906-3.4805 0-6.3047-1.0156-8.4688-3.0469-2.168-2.0312-3.25-4.6641-3.25-7.9062 0-3.9375 1.3516-6.8203 4.0625-8.6562 2.707-1.8438 6.957-2.7656 12.75-2.7656h6.3281v-0.84375c0-1.6953-0.67188-2.9375-2.0156-3.7188-1.3359-0.78906-3.418-1.1875-6.25-1.1875-2.3047 0-4.4453 0.23047-6.4219 0.6875-1.9805 0.46094-3.8203 1.1484-5.5156 2.0625v-8.1875c2.3008-0.55078 4.6094-0.97266 6.9219-1.2656 2.3203-0.28906 4.6406-0.4375 6.9531-0.4375 6.0625 0 10.438 1.1992 13.125 3.5938 2.6875 2.3867 4.0312 6.2656 4.0312 11.641z"/>
    </symbol>
    <symbol id="a" overflow="visible">
      <path d="m16.875-43.109v9.5312h11.062v7.6719h-11.062v14.25c0 1.5547 0.30469 2.6055 0.92188 3.1562 0.625 0.55469 1.8594 0.82812 3.7031 0.82812h5.5156v7.6719h-9.2031c-4.2422 0-7.2461-0.88281-9.0156-2.6562-1.7734-1.7695-2.6562-4.7695-2.6562-9v-14.25h-5.3281v-7.6719h5.3281v-9.5312z"/>
    </symbol>
    <symbol id="h" overflow="visible">
      <path d="m28-28.672v-17.984h10.797v46.656h-10.797v-4.8594c-1.4805 1.9805-3.1094 3.4336-4.8906 4.3594-1.7734 0.91406-3.8281 1.375-6.1719 1.375-4.1367 0-7.5312-1.6445-10.188-4.9375-2.6562-3.2891-3.9844-7.5234-3.9844-12.703 0-5.1758 1.3281-9.4062 3.9844-12.688 2.6562-3.2891 6.0508-4.9375 10.188-4.9375 2.3203 0 4.375 0.46484 6.1562 1.3906 1.7891 0.92969 3.4258 2.3711 4.9062 4.3281zm-7.0781 21.75c2.3008 0 4.0547-0.83594 5.2656-2.5156 1.207-1.6875 1.8125-4.1289 1.8125-7.3281 0-3.1953-0.60547-5.6328-1.8125-7.3125-1.2109-1.6758-2.9648-2.5156-5.2656-2.5156-2.2734 0-4.0156 0.83984-5.2344 2.5156-1.2109 1.6797-1.8125 4.1172-1.8125 7.3125 0 3.1992 0.60156 5.6406 1.8125 7.3281 1.2188 1.6797 2.9609 2.5156 5.2344 2.5156z"/>
    </symbol>
    <symbol id="g" overflow="visible">
      <path d="m23.031-6.9219c2.2891 0 4.0391-0.83594 5.25-2.5156 1.2188-1.6875 1.8281-4.1289 1.8281-7.3281 0-3.1953-0.60938-5.6328-1.8281-7.3125-1.2109-1.6758-2.9609-2.5156-5.25-2.5156-2.3047 0-4.0703 0.84375-5.2969 2.5312-1.2305 1.6875-1.8438 4.1211-1.8438 7.2969 0 3.1797 0.61328 5.6172 1.8438 7.3125 1.2266 1.6875 2.9922 2.5312 5.2969 2.5312zm-7.1406-21.75c1.4766-1.957 3.1133-3.3984 4.9062-4.3281 1.8008-0.92578 3.875-1.3906 6.2188-1.3906 4.1328 0 7.5312 1.6484 10.188 4.9375 2.6641 3.2812 4 7.5117 4 12.688 0 5.1797-1.3359 9.4141-4 12.703-2.6562 3.293-6.0547 4.9375-10.188 4.9375-2.3438 0-4.418-0.46484-6.2188-1.3906-1.793-0.9375-3.4297-2.3828-4.9062-4.3438v4.8594h-10.734v-46.656h10.734z"/>
    </symbol>
    <symbol id="f" overflow="visible">
      <path d="m0.75-33.578h10.734l9.0312 22.781 7.6719-22.781h10.734l-14.125 36.75c-1.418 3.7383-3.0742 6.3516-4.9688 7.8438-1.8867 1.4883-4.375 2.2344-7.4688 2.2344h-6.2188v-7.0469h3.3594c1.8203 0 3.1445-0.29297 3.9688-0.875 0.83203-0.57422 1.4766-1.6094 1.9375-3.1094l0.3125-0.92188z"/>
    </symbol>
    <symbol id="e" overflow="visible">
      <path d="m5.6406-44.766h11.547v44.766h-11.547z"/>
    </symbol>
    <symbol id="d" overflow="visible">
      <path d="m32.297-32.531v8.75c-1.4609-1-2.9219-1.7383-4.3906-2.2188-1.4688-0.47656-2.9961-0.71875-4.5781-0.71875-3 0-5.3359 0.875-7 2.625-1.668 1.75-2.5 4.1953-2.5 7.3281 0 3.1484 0.83203 5.5938 2.5 7.3438 1.6641 1.7422 4 2.6094 7 2.6094 1.6758 0 3.2695-0.25 4.7812-0.75 1.5078-0.5 2.9062-1.2383 4.1875-2.2188v8.7969c-1.6797 0.61719-3.3828 1.0781-5.1094 1.3906-1.7305 0.3125-3.4648 0.46875-5.2031 0.46875-6.0625 0-10.805-1.5508-14.219-4.6562-3.418-3.1133-5.125-7.4414-5.125-12.984 0-5.5312 1.707-9.8477 5.125-12.953 3.4141-3.1133 8.1562-4.6719 14.219-4.6719 1.75 0 3.4766 0.15625 5.1875 0.46875 1.7188 0.30469 3.4258 0.76562 5.125 1.3906z"/>
    </symbol>
    <symbol id="c" overflow="visible">
      <path d="m21.141-26.719c-2.375 0-4.1875 0.85547-5.4375 2.5625-1.25 1.7109-1.875 4.1719-1.875 7.3906s0.625 5.6836 1.875 7.3906c1.25 1.7109 3.0625 2.5625 5.4375 2.5625 2.332 0 4.1172-0.85156 5.3594-2.5625 1.2383-1.707 1.8594-4.1719 1.8594-7.3906s-0.62109-5.6797-1.8594-7.3906c-1.2422-1.707-3.0273-2.5625-5.3594-2.5625zm0-7.6719c5.7695 0 10.281 1.5625 13.531 4.6875 3.25 3.1172 4.875 7.4297 4.875 12.938 0 5.5234-1.625 9.8438-4.875 12.969-3.25 3.1172-7.7617 4.6719-13.531 4.6719-5.8047 0-10.34-1.5547-13.609-4.6719-3.2617-3.125-4.8906-7.4453-4.8906-12.969 0-5.5078 1.6289-9.8203 4.8906-12.938 3.2695-3.125 7.8047-4.6875 13.609-4.6875z"/>
    </symbol>
    <symbol id="m" overflow="visible">
      <path d="m38.922-20.453v20.453h-10.797v-15.656c0-2.8945-0.070312-4.8906-0.20312-5.9844-0.125-1.1016-0.35156-1.9141-0.67188-2.4375-0.41797-0.69531-0.98438-1.2383-1.7031-1.625-0.71875-0.39453-1.5391-0.59375-2.4531-0.59375-2.2422 0-4 0.86719-5.2812 2.5938-1.2812 1.7305-1.9219 4.125-1.9219 7.1875v16.516h-10.734v-33.578h10.734v4.9062c1.6133-1.957 3.332-3.3984 5.1562-4.3281 1.8203-0.92578 3.832-1.3906 6.0312-1.3906 3.875 0 6.8164 1.1953 8.8281 3.5781 2.0078 2.375 3.0156 5.8281 3.0156 10.359z"/>
    </symbol>
    <symbol id="l" overflow="visible">
      <path d="m31.391-32.531v8.1562c-2.3047-0.95703-4.5234-1.6758-6.6562-2.1562-2.1367-0.47656-4.1523-0.71875-6.0469-0.71875-2.043 0-3.5586 0.25781-4.5469 0.76562-0.99219 0.51172-1.4844 1.293-1.4844 2.3438 0 0.86719 0.375 1.5273 1.125 1.9844 0.75 0.46094 2.0938 0.79688 4.0312 1.0156l1.8906 0.26562c5.4883 0.71094 9.1797 1.8672 11.078 3.4688 1.9062 1.5938 2.8594 4.1016 2.8594 7.5156 0 3.5742-1.3242 6.2617-3.9688 8.0625-2.6367 1.8047-6.5703 2.7031-11.797 2.7031-2.2188 0-4.5156-0.17969-6.8906-0.53125-2.3672-0.35156-4.7969-0.87891-7.2969-1.5781v-8.1562c2.1328 1.043 4.3281 1.8242 6.5781 2.3438 2.25 0.52344 4.5352 0.78125 6.8594 0.78125 2.0938 0 3.6719-0.28516 4.7344-0.85938 1.0625-0.58203 1.5938-1.4453 1.5938-2.5938 0-0.95703-0.36719-1.6719-1.0938-2.1406-0.73047-0.46875-2.1875-0.83203-4.375-1.0938l-1.8906-0.23438c-4.7734-0.60156-8.1211-1.7109-10.047-3.3281-1.918-1.625-2.875-4.082-2.875-7.375 0-3.5625 1.2188-6.2031 3.6562-7.9219 2.4453-1.7188 6.1875-2.5781 11.219-2.5781 1.9766 0 4.0547 0.15234 6.2344 0.45312 2.1875 0.30469 4.5547 0.77344 7.1094 1.4062z"/>
    </symbol>
    <symbol id="k" overflow="visible">
      <path d="m5.1562-46.656h10.734v25.391l12.359-12.312h12.469l-16.406 15.406 17.688 18.172h-13l-13.109-14v14h-10.734z"/>
    </symbol>
  </defs>
  <g transform="matrix(1, 0, 0, 1, 49.868904, 115.244011)">
    <path d="M 423.68 478.18 L 159.64 478.18 C 102.816 477.774 50.44 447.356 21.93 398.2 C -6.58 349.044 -6.976 288.48 20.887 238.95 C 48.754 189.427 100.727 158.325 157.547 157.177 C 177.27 157.267 196.883 160.161 215.793 165.771 C 223.859 85.787 286.481 23.791 362.273 23.791 C 444.394 23.791 508.723 92.107 508.723 179.341 L 508.723 184.095 C 508.723 190.063 508.723 195.146 508.489 199.876 C 526.29 192.27 545.567 188.755 564.907 189.583 C 640.653 189.583 699.997 251.626 699.997 330.813 L 699.997 330.817 C 699.997 337.598 694.497 343.098 687.716 343.098 C 680.935 343.098 675.435 337.598 675.435 330.817 C 675.435 265.399 626.888 214.147 564.905 214.147 C 532.866 214.147 514.995 220.287 496.6 237.663 L 496.6 237.667 C 492.303 241.698 485.748 242.104 480.979 238.639 C 476.213 235.174 474.58 228.815 477.088 223.479 C 483.197 211.342 485.658 197.69 484.174 184.182 L 484.174 179.37 C 484.162 105.905 430.615 48.36 362.274 48.36 C 294.547 48.36 239.464 108.622 239.464 182.7 C 239.476 187.043 237.304 191.106 233.683 193.505 C 230.144 195.856 225.644 196.216 221.781 194.45 C 201.472 185.864 179.617 181.536 157.566 181.739 C 109.476 182.809 65.531 209.208 41.996 251.165 C 18.469 293.118 18.859 344.384 43.027 385.975 C 67.191 427.565 111.535 453.291 159.637 453.623 L 423.677 453.623 C 430.458 453.623 435.958 459.123 435.958 465.904 C 435.958 472.685 430.458 478.185 423.677 478.185 L 423.68 478.18 Z"/>
    <path d="M 663.16 545.72 L 485.09 545.72 C 478.309 545.72 472.813 540.224 472.813 533.439 L 472.813 373.789 C 472.813 367.008 478.309 361.508 485.09 361.508 L 663.16 361.508 C 666.418 361.508 669.543 362.805 671.844 365.106 C 674.148 367.41 675.441 370.532 675.441 373.789 L 675.441 533.439 C 675.441 536.697 674.148 539.822 671.844 542.123 C 669.543 544.428 666.418 545.721 663.16 545.721 L 663.16 545.72 Z M 497.37 521.158 L 650.88 521.162 L 650.88 386.072 L 497.37 386.068 L 497.37 521.158 Z"/>
    <path d="M 485.09 545.72 C 480.352 545.716 476.035 542.982 474.004 538.697 C 471.977 534.408 472.598 529.337 475.598 525.666 L 530.86 458.123 L 530.864 458.123 C 532.934 455.584 535.938 453.978 539.204 453.662 C 542.465 453.349 545.719 454.353 548.239 456.455 L 575.255 479.025 L 610.439 433.795 L 610.443 433.795 C 612.611 430.994 615.884 429.267 619.419 429.056 C 622.931 428.861 626.361 430.158 628.865 432.627 L 671.849 475.611 L 671.845 475.611 C 676.501 480.431 676.434 488.088 671.696 492.826 C 666.958 497.564 659.298 497.63 654.481 492.974 L 621.325 459.818 L 586.938 504.103 L 586.934 504.103 C 584.891 506.728 581.868 508.412 578.559 508.767 C 575.251 509.111 571.946 508.115 569.376 506.006 L 542.064 483.225 L 494.65 541.178 L 494.646 541.178 C 492.31 544.056 488.802 545.728 485.091 545.721 L 485.09 545.72 Z"/>
    <path d="M 567.98 447.48 C 562.277 447.48 556.812 445.218 552.781 441.187 C 548.75 437.156 546.488 431.691 546.488 425.992 C 546.488 420.289 548.75 414.824 552.781 410.793 C 556.812 406.766 562.277 404.5 567.98 404.5 C 573.679 404.5 579.144 406.766 583.175 410.793 C 587.206 414.824 589.468 420.289 589.468 425.992 C 589.464 431.687 587.195 437.152 583.167 441.18 C 579.14 445.211 573.675 447.477 567.979 447.481 L 567.98 447.48 Z M 567.98 422.918 L 567.98 422.922 C 566.281 422.922 564.91 424.297 564.91 425.992 C 564.91 429.371 571.05 429.371 571.05 425.992 L 571.046 425.992 C 571.046 425.176 570.726 424.395 570.148 423.82 C 569.574 423.242 568.792 422.922 567.98 422.922 L 567.98 422.918 Z"/>
  </g>
</svg>